<svg fill="none" xmlns="http://www.w3.org/2000/svg" viewBox="2.82 16.5 348.75 127">
    <path d="M172.605 48.0322C159.549 48.0322 151.485 49.6642 145.821 55.1362C138.525 62.2402 138.045 72.8962 138.045 82.5922C138.045 89.8882 137.949 101.792 146.013 109.664C151.581 115.136 159.165 116 172.605 116H209.277V105.536L199.677 105.92V105.536C201.981 103.424 203.421 101.216 204.285 99.3922C206.973 93.8242 207.069 86.8162 207.069 81.7282C207.069 67.2322 204.573 60.1282 199.389 55.1362C193.629 49.5682 185.757 48.0322 172.605 48.0322ZM151.101 82.3042C151.101 70.7842 153.213 66.2722 155.229 63.6802C159.261 58.5922 165.501 58.1122 172.509 58.1122C179.709 58.1122 185.853 58.5922 189.885 63.6802C192.477 66.9442 194.013 72.1282 194.013 82.3042C194.013 94.1122 191.517 98.7202 189.885 100.736C185.949 105.632 179.613 105.92 172.509 105.92C165.501 105.92 159.261 105.632 155.229 100.736C153.309 98.3362 151.101 93.8242 151.101 82.3042Z" fill="white"/>
    <path d="M215.388 116H226.62V48.8002H215.388V116Z" fill="white"/>
    <path d="M234.326 116H245.558V65.1202H234.326V116ZM245.558 57.7282V48.8002H234.326V57.7282H245.558Z" fill="white"/>
    <path d="M296.175 116V107.36H277.935C273.231 107.36 267.663 106.88 265.167 101.984C263.823 99.2962 263.535 94.4002 263.535 91.4242C263.535 89.8882 263.631 84.5122 264.399 81.8242C265.647 77.5042 269.295 73.7602 276.879 73.7602H295.023V65.1202H273.231C264.111 65.1202 259.791 68.4802 257.679 70.5922C252.015 76.4482 251.919 85.1842 251.919 91.2322C251.919 98.4322 252.303 104.768 256.527 109.76C261.135 115.232 267.855 116 271.695 116H296.175Z" fill="white"/>
    <path d="M313.714 116V48.8002H302.482V116H313.714ZM351.538 116L330.706 94.0162C329.458 92.6722 328.306 90.9442 328.306 89.3122C328.306 87.6802 329.074 86.6242 329.938 85.6642L349.042 65.1202H335.986L320.626 82.0162C319.186 83.6482 317.074 85.8562 317.074 89.6962C317.074 93.2482 319.09 95.8402 320.53 97.3762L338.098 116H351.538Z" fill="white"/>
    <path d="M115.796 116H128.468V57.2483C128.468 55.2323 128.276 52.5443 125.972 50.6243C124.532 49.4723 122.42 48.8003 119.732 48.8003H105.236V58.8803H112.628C113.588 58.8803 114.452 58.8803 115.124 59.9363C115.7 60.8003 115.796 62.3363 115.796 63.4883V116Z" fill="white"/>
    <path d="M3.43742 76.1309L62.5307 17.1119C63.801 15.8431 65.9712 16.743 65.971 18.5384L65.9604 102.056C65.9602 103.851 63.7912 104.751 62.5208 103.483L39.2096 80.2224C38.8326 79.8462 38.322 79.6345 37.7894 79.6336L4.85818 79.5729C3.06349 79.5696 2.16758 77.3991 3.43742 76.1309Z" fill="white"/>
    <path d="M38.5708 89.9028C38.5708 88.1089 40.7381 87.2086 42.0092 88.4747L65.3746 111.748C65.7543 112.127 65.9678 112.641 65.9678 113.177V141.464C65.9678 143.254 63.8084 144.156 62.5351 142.898L39.1697 119.807C38.7865 119.429 38.5708 118.912 38.5708 118.374V89.9028Z" fill="#FFCAB9"/>
</svg>